<?xml version="1.0" standalone="no"?>
<!DOCTYPE svg PUBLIC "-//W3C//DTD SVG 20010904//EN"
 "http://www.w3.org/TR/2001/REC-SVG-20010904/DTD/svg10.dtd">
<svg version="1.0" xmlns="http://www.w3.org/2000/svg"
 width="260.000000pt" height="260.000000pt" viewBox="0 0 260.000000 260.000000"
 preserveAspectRatio="xMidYMid meet">
<metadata>
Created by potrace 1.11, written by Peter Selinger 2001-2013
</metadata>
<g transform="translate(0.000000,260.000000) scale(0.100000,-0.100000)"
fill="#000000" stroke="none">
<path d="M1304 2239 c1 -224 -3 -353 -9 -357 -5 -4 -298 -7 -650 -7 l-640 -1
-3 -576 -2 -577 645 0 c355 0 649 -2 653 -5 4 -2 6 -162 6 -355 -1 -193 1
-351 5 -351 3 0 296 290 649 643 l644 644 -647 646 c-356 356 -648 647 -649
647 -2 0 -3 -158 -2 -351z"/>
</g>
</svg>
